# xmcd
#
# Track frame offsets:
#	150
#	15267
#	32235
#	46720
#	61707
#	78357
#	90282
#	103052
#	118060
#	133767
#	147057
#	162225
#
# Disc length: 2328 seconds
#
# Revision: 10
# Processed by: cddbd v1.5.2PL0 Copyright (c) Steve Scherf et al.
# Submitted via: audiograbber 1.83.01
#
DISCID=8a09160c
DTITLE=Sammy Kershaw - Politics, Religion And Her
DYEAR=1996
DGENRE=Country
TTITLE0=Vidalia
TTITLE1=Meant To Be
TTITLE2=Fit To Be Tied Down
TTITLE3=Politics, Religion And Her
TTITLE4=Chevy Van
TTITLE5=Same Place
TTITLE6=Little Bitty Crack In Her Heart
TTITLE7=These Flowers
TTITLE8=I Saw You Today
TTITLE9=Memphis, Tennessee
TTITLE10=For Years
TTITLE11=Here She Comes
EXTD=ID3G: 2
EXTT0=
EXTT1=
EXTT2=
EXTT3=
EXTT4=
EXTT5=
EXTT6=
EXTT7=
EXTT8=
EXTT9=
EXTT10=
EXTT11=
PLAYORDER=
